<mxfile host="app.diagrams.net" agent="Mozilla/5.0 (Windows NT 10.0; Win64; x64) AppleWebKit/537.36 (KHTML, like Gecko) Chrome/137.0.0.0 Safari/537.36 Edg/137.0.0.0" version="27.1.6">
  <diagram name="Página-1" id="cxPWyqA24JBwAGh7WBXs">
    <mxGraphModel grid="1" page="1" gridSize="10" guides="1" tooltips="1" connect="1" arrows="1" fold="1" pageScale="1" pageWidth="827" pageHeight="1169" math="0" shadow="0">
      <root>
        <mxCell id="0" />
        <mxCell id="1" parent="0" />
        <mxCell id="SY-MzMTitLkkKKeFqSy7-1" value="CU013 Editar evento" style="swimlane;childLayout=stackLayout;resizeParent=1;resizeParentMax=0;startSize=20;horizontal=0;horizontalStack=1;" vertex="1" parent="1">
          <mxGeometry x="74" y="100" width="680" height="780" as="geometry">
            <mxRectangle x="200" y="80" width="40" height="50" as="alternateBounds" />
          </mxGeometry>
        </mxCell>
        <mxCell id="SY-MzMTitLkkKKeFqSy7-7" style="edgeStyle=orthogonalEdgeStyle;rounded=0;orthogonalLoop=1;jettySize=auto;html=1;exitX=0;exitY=0.5;exitDx=0;exitDy=0;entryX=1;entryY=0.5;entryDx=0;entryDy=0;strokeColor=light-dark(#ff0000, #ededed);" edge="1" parent="SY-MzMTitLkkKKeFqSy7-1" source="SY-MzMTitLkkKKeFqSy7-14" target="SY-MzMTitLkkKKeFqSy7-6">
          <mxGeometry relative="1" as="geometry" />
        </mxCell>
        <mxCell id="SY-MzMTitLkkKKeFqSy7-17" style="edgeStyle=orthogonalEdgeStyle;rounded=0;orthogonalLoop=1;jettySize=auto;html=1;exitX=1;exitY=0.5;exitDx=0;exitDy=0;entryX=0.5;entryY=0;entryDx=0;entryDy=0;strokeColor=light-dark(#ff0000, #ededed);" edge="1" parent="SY-MzMTitLkkKKeFqSy7-1" source="SY-MzMTitLkkKKeFqSy7-4" target="SY-MzMTitLkkKKeFqSy7-11">
          <mxGeometry relative="1" as="geometry" />
        </mxCell>
        <mxCell id="SY-MzMTitLkkKKeFqSy7-20" style="edgeStyle=orthogonalEdgeStyle;rounded=0;orthogonalLoop=1;jettySize=auto;html=1;strokeColor=light-dark(#ff0000, #ededed);" edge="1" parent="SY-MzMTitLkkKKeFqSy7-1" source="SY-MzMTitLkkKKeFqSy7-16" target="SY-MzMTitLkkKKeFqSy7-21">
          <mxGeometry relative="1" as="geometry">
            <mxPoint x="106" y="290" as="targetPoint" />
            <Array as="points">
              <mxPoint x="146" y="260" />
            </Array>
          </mxGeometry>
        </mxCell>
        <mxCell id="kuDBVkSXc2tmlVB91SHo-2" style="edgeStyle=orthogonalEdgeStyle;rounded=0;orthogonalLoop=1;jettySize=auto;html=1;strokeColor=light-dark(#ff0000, #ededed);" edge="1" parent="SY-MzMTitLkkKKeFqSy7-1" source="SY-MzMTitLkkKKeFqSy7-6" target="SY-MzMTitLkkKKeFqSy7-16">
          <mxGeometry relative="1" as="geometry">
            <Array as="points">
              <mxPoint x="108" y="205" />
            </Array>
          </mxGeometry>
        </mxCell>
        <mxCell id="SY-MzMTitLkkKKeFqSy7-2" value="Administrador" style="swimlane;startSize=20;" vertex="1" parent="SY-MzMTitLkkKKeFqSy7-1">
          <mxGeometry x="20" width="290" height="780" as="geometry" />
        </mxCell>
        <mxCell id="SY-MzMTitLkkKKeFqSy7-3" value="" style="ellipse;html=1;shape=startState;fillColor=#000000;strokeColor=#ff0000;fillStyle=auto;" vertex="1" parent="SY-MzMTitLkkKKeFqSy7-2">
          <mxGeometry x="28" y="55" width="30" height="30" as="geometry" />
        </mxCell>
        <mxCell id="SY-MzMTitLkkKKeFqSy7-4" value="Pulsa el apartado &quot;Administrar eventos&quot;" style="rounded=1;whiteSpace=wrap;html=1;arcSize=40;fontColor=#000000;fillColor=#ffffc0;strokeColor=#ff0000;" vertex="1" parent="SY-MzMTitLkkKKeFqSy7-2">
          <mxGeometry x="130" y="50" width="150" height="40" as="geometry" />
        </mxCell>
        <mxCell id="SY-MzMTitLkkKKeFqSy7-5" value="" style="edgeStyle=orthogonalEdgeStyle;html=1;verticalAlign=bottom;endArrow=open;endSize=8;strokeColor=#ff0000;rounded=0;exitX=1;exitY=0.5;exitDx=0;exitDy=0;" edge="1" parent="SY-MzMTitLkkKKeFqSy7-2" source="SY-MzMTitLkkKKeFqSy7-3">
          <mxGeometry relative="1" as="geometry">
            <mxPoint x="130" y="70" as="targetPoint" />
            <mxPoint x="82" y="75" as="sourcePoint" />
            <Array as="points">
              <mxPoint x="130" y="70" />
            </Array>
          </mxGeometry>
        </mxCell>
        <mxCell id="SY-MzMTitLkkKKeFqSy7-6" value="Pulsar botón &quot;Ver evento&quot;" style="rounded=1;whiteSpace=wrap;html=1;arcSize=40;fontColor=#000000;fillColor=#ffffc0;strokeColor=#ff0000;" vertex="1" parent="SY-MzMTitLkkKKeFqSy7-2">
          <mxGeometry x="28" y="100" width="120" height="50" as="geometry" />
        </mxCell>
        <mxCell id="SY-MzMTitLkkKKeFqSy7-21" value="Pulsar botón &quot;Editar evento&quot;" style="rounded=1;whiteSpace=wrap;html=1;arcSize=40;fontColor=#000000;fillColor=#ffffc0;strokeColor=#ff0000;" vertex="1" parent="SY-MzMTitLkkKKeFqSy7-2">
          <mxGeometry x="46" y="230" width="174" height="50" as="geometry" />
        </mxCell>
        <mxCell id="kuDBVkSXc2tmlVB91SHo-9" value="" style="edgeStyle=orthogonalEdgeStyle;rounded=0;orthogonalLoop=1;jettySize=auto;html=1;strokeColor=light-dark(#ff0000, #ededed);" edge="1" parent="SY-MzMTitLkkKKeFqSy7-2" source="SY-MzMTitLkkKKeFqSy7-24" target="kuDBVkSXc2tmlVB91SHo-8">
          <mxGeometry relative="1" as="geometry" />
        </mxCell>
        <mxCell id="SY-MzMTitLkkKKeFqSy7-24" value="Llenar formulario" style="rounded=1;whiteSpace=wrap;html=1;arcSize=40;fontColor=#000000;fillColor=#ffffc0;strokeColor=#ff0000;" vertex="1" parent="SY-MzMTitLkkKKeFqSy7-2">
          <mxGeometry x="36" y="370" width="174" height="50" as="geometry" />
        </mxCell>
        <mxCell id="kuDBVkSXc2tmlVB91SHo-8" value="Pulsar botón guardar" style="rounded=1;whiteSpace=wrap;html=1;arcSize=40;fontColor=#000000;fillColor=#ffffc0;strokeColor=#ff0000;" vertex="1" parent="SY-MzMTitLkkKKeFqSy7-2">
          <mxGeometry x="36" y="485" width="174" height="50" as="geometry" />
        </mxCell>
        <mxCell id="kuDBVkSXc2tmlVB91SHo-3" style="edgeStyle=orthogonalEdgeStyle;rounded=0;orthogonalLoop=1;jettySize=auto;html=1;strokeColor=light-dark(#ff0000, #ededed);" edge="1" parent="SY-MzMTitLkkKKeFqSy7-1" source="SY-MzMTitLkkKKeFqSy7-21" target="SY-MzMTitLkkKKeFqSy7-31">
          <mxGeometry relative="1" as="geometry">
            <Array as="points">
              <mxPoint x="153" y="305" />
            </Array>
          </mxGeometry>
        </mxCell>
        <mxCell id="kuDBVkSXc2tmlVB91SHo-5" style="edgeStyle=orthogonalEdgeStyle;rounded=0;orthogonalLoop=1;jettySize=auto;html=1;strokeColor=light-dark(#ff0000, #ededed);" edge="1" parent="SY-MzMTitLkkKKeFqSy7-1" source="SY-MzMTitLkkKKeFqSy7-31" target="SY-MzMTitLkkKKeFqSy7-24">
          <mxGeometry relative="1" as="geometry">
            <Array as="points">
              <mxPoint x="503" y="350" />
              <mxPoint x="143" y="350" />
            </Array>
          </mxGeometry>
        </mxCell>
        <mxCell id="SY-MzMTitLkkKKeFqSy7-9" value="Sistema" style="swimlane;startSize=20;" vertex="1" parent="SY-MzMTitLkkKKeFqSy7-1">
          <mxGeometry x="310" width="370" height="780" as="geometry">
            <mxRectangle x="310" width="40" height="720" as="alternateBounds" />
          </mxGeometry>
        </mxCell>
        <mxCell id="SY-MzMTitLkkKKeFqSy7-10" style="edgeStyle=orthogonalEdgeStyle;rounded=0;orthogonalLoop=1;jettySize=auto;html=1;exitX=0;exitY=0.5;exitDx=0;exitDy=0;entryX=1;entryY=0.5;entryDx=0;entryDy=0;strokeColor=light-dark(#ff0000, #ededed);" edge="1" parent="SY-MzMTitLkkKKeFqSy7-9" source="SY-MzMTitLkkKKeFqSy7-11" target="SY-MzMTitLkkKKeFqSy7-14">
          <mxGeometry relative="1" as="geometry" />
        </mxCell>
        <mxCell id="SY-MzMTitLkkKKeFqSy7-11" value="Mostrar apartado" style="rounded=1;whiteSpace=wrap;html=1;arcSize=40;fontColor=#000000;fillColor=#ffffc0;strokeColor=#ff0000;" vertex="1" parent="SY-MzMTitLkkKKeFqSy7-9">
          <mxGeometry x="208" y="100" width="110" height="50" as="geometry" />
        </mxCell>
        <mxCell id="SY-MzMTitLkkKKeFqSy7-12" value="" style="ellipse;html=1;shape=endState;fillColor=#000000;strokeColor=#ff0000;" vertex="1" parent="SY-MzMTitLkkKKeFqSy7-9">
          <mxGeometry x="136" y="680" width="30" height="30" as="geometry" />
        </mxCell>
        <mxCell id="SY-MzMTitLkkKKeFqSy7-13" style="edgeStyle=orthogonalEdgeStyle;rounded=0;orthogonalLoop=1;jettySize=auto;html=1;exitX=0.5;exitY=1;exitDx=0;exitDy=0;" edge="1" parent="SY-MzMTitLkkKKeFqSy7-9">
          <mxGeometry relative="1" as="geometry">
            <mxPoint x="86" y="360" as="sourcePoint" />
            <mxPoint x="86" y="360" as="targetPoint" />
          </mxGeometry>
        </mxCell>
        <mxCell id="SY-MzMTitLkkKKeFqSy7-14" value="Mostrar listado eventos" style="rounded=1;whiteSpace=wrap;html=1;arcSize=40;fontColor=#000000;fillColor=#ffffc0;strokeColor=#ff0000;" vertex="1" parent="SY-MzMTitLkkKKeFqSy7-9">
          <mxGeometry x="34" y="100" width="120" height="50" as="geometry" />
        </mxCell>
        <mxCell id="SY-MzMTitLkkKKeFqSy7-16" value="Mostrar detalle evento" style="rounded=1;whiteSpace=wrap;html=1;arcSize=40;fontColor=#000000;fillColor=#ffffc0;strokeColor=#ff0000;" vertex="1" parent="SY-MzMTitLkkKKeFqSy7-9">
          <mxGeometry x="126" y="180" width="174" height="50" as="geometry" />
        </mxCell>
        <mxCell id="SY-MzMTitLkkKKeFqSy7-28" value="¿Datos válidos?" style="rhombus;whiteSpace=wrap;html=1;fontColor=#000000;fillColor=#ffffc0;strokeColor=#ff0000;" vertex="1" parent="SY-MzMTitLkkKKeFqSy7-9">
          <mxGeometry x="226" y="420" width="134" height="80" as="geometry" />
        </mxCell>
        <mxCell id="SY-MzMTitLkkKKeFqSy7-30" value="si" style="edgeStyle=orthogonalEdgeStyle;html=1;align=left;verticalAlign=top;endArrow=open;endSize=8;strokeColor=#ff0000;rounded=0;" edge="1" parent="SY-MzMTitLkkKKeFqSy7-9" source="SY-MzMTitLkkKKeFqSy7-28" target="SY-MzMTitLkkKKeFqSy7-46">
          <mxGeometry x="-1" relative="1" as="geometry">
            <mxPoint x="276" y="520" as="targetPoint" />
          </mxGeometry>
        </mxCell>
        <mxCell id="SY-MzMTitLkkKKeFqSy7-33" style="edgeStyle=orthogonalEdgeStyle;rounded=0;orthogonalLoop=1;jettySize=auto;html=1;strokeColor=light-dark(#ff0000, #ededed);" edge="1" parent="SY-MzMTitLkkKKeFqSy7-9" source="SY-MzMTitLkkKKeFqSy7-32" target="SY-MzMTitLkkKKeFqSy7-28">
          <mxGeometry relative="1" as="geometry" />
        </mxCell>
        <mxCell id="SY-MzMTitLkkKKeFqSy7-32" value="Validar datos" style="rounded=1;whiteSpace=wrap;html=1;arcSize=40;fontColor=#000000;fillColor=#ffffc0;strokeColor=#ff0000;" vertex="1" parent="SY-MzMTitLkkKKeFqSy7-9">
          <mxGeometry x="30" y="430" width="114" height="30" as="geometry" />
        </mxCell>
        <mxCell id="SY-MzMTitLkkKKeFqSy7-31" value="Mostrar Formulario" style="rounded=1;whiteSpace=wrap;html=1;arcSize=40;fontColor=#000000;fillColor=#ffffc0;strokeColor=#ff0000;" vertex="1" parent="SY-MzMTitLkkKKeFqSy7-9">
          <mxGeometry x="106" y="280" width="174" height="50" as="geometry" />
        </mxCell>
        <mxCell id="SY-MzMTitLkkKKeFqSy7-51" style="edgeStyle=orthogonalEdgeStyle;rounded=0;orthogonalLoop=1;jettySize=auto;html=1;exitX=0.5;exitY=1;exitDx=0;exitDy=0;entryX=0.5;entryY=0;entryDx=0;entryDy=0;strokeColor=#FF0808;" edge="1" parent="SY-MzMTitLkkKKeFqSy7-9" source="SY-MzMTitLkkKKeFqSy7-46" target="SY-MzMTitLkkKKeFqSy7-49">
          <mxGeometry relative="1" as="geometry" />
        </mxCell>
        <mxCell id="SY-MzMTitLkkKKeFqSy7-46" value="Mostrar mensaje de éxito" style="rounded=1;whiteSpace=wrap;html=1;arcSize=40;fontColor=#000000;fillColor=#ffffc0;strokeColor=#ff0000;" vertex="1" parent="SY-MzMTitLkkKKeFqSy7-9">
          <mxGeometry x="229" y="550" width="128" height="40" as="geometry" />
        </mxCell>
        <mxCell id="SY-MzMTitLkkKKeFqSy7-52" style="edgeStyle=orthogonalEdgeStyle;rounded=0;orthogonalLoop=1;jettySize=auto;html=1;exitX=0.5;exitY=1;exitDx=0;exitDy=0;entryX=0.5;entryY=0;entryDx=0;entryDy=0;strokeColor=light-dark(#ff0000, #ededed);" edge="1" parent="SY-MzMTitLkkKKeFqSy7-9" source="SY-MzMTitLkkKKeFqSy7-49" target="SY-MzMTitLkkKKeFqSy7-50">
          <mxGeometry relative="1" as="geometry" />
        </mxCell>
        <mxCell id="SY-MzMTitLkkKKeFqSy7-49" value="Guardar evento" style="rounded=1;whiteSpace=wrap;html=1;arcSize=40;fontColor=#000000;fillColor=#ffffc0;strokeColor=#ff0000;" vertex="1" parent="SY-MzMTitLkkKKeFqSy7-9">
          <mxGeometry x="229" y="620" width="128" height="40" as="geometry" />
        </mxCell>
        <mxCell id="SY-MzMTitLkkKKeFqSy7-53" style="edgeStyle=orthogonalEdgeStyle;rounded=0;orthogonalLoop=1;jettySize=auto;html=1;exitX=0.5;exitY=1;exitDx=0;exitDy=0;strokeColor=light-dark(#ff0000, #ededed);" edge="1" parent="SY-MzMTitLkkKKeFqSy7-9" source="SY-MzMTitLkkKKeFqSy7-50" target="SY-MzMTitLkkKKeFqSy7-12">
          <mxGeometry relative="1" as="geometry" />
        </mxCell>
        <mxCell id="SY-MzMTitLkkKKeFqSy7-50" value="Redirigir a listado de eventos" style="rounded=1;whiteSpace=wrap;html=1;arcSize=40;fontColor=#000000;fillColor=#ffffc0;strokeColor=#ff0000;" vertex="1" parent="SY-MzMTitLkkKKeFqSy7-9">
          <mxGeometry x="229" y="690" width="128" height="40" as="geometry" />
        </mxCell>
        <mxCell id="cWlaVs1k42um56Pu7tMj-1" value="Mostrar mensaje de error" style="rounded=1;whiteSpace=wrap;html=1;arcSize=40;fontColor=#000000;fillColor=#ffffc0;strokeColor=#ff0000;" vertex="1" parent="SY-MzMTitLkkKKeFqSy7-9">
          <mxGeometry x="56" y="370" width="128" height="40" as="geometry" />
        </mxCell>
        <mxCell id="kuDBVkSXc2tmlVB91SHo-6" style="edgeStyle=orthogonalEdgeStyle;rounded=0;orthogonalLoop=1;jettySize=auto;html=1;strokeColor=light-dark(#ff0000, #ededed);entryX=1;entryY=0.5;entryDx=0;entryDy=0;" edge="1" parent="SY-MzMTitLkkKKeFqSy7-9" source="SY-MzMTitLkkKKeFqSy7-28" target="cWlaVs1k42um56Pu7tMj-1">
          <mxGeometry relative="1" as="geometry">
            <Array as="points">
              <mxPoint x="293" y="390" />
            </Array>
          </mxGeometry>
        </mxCell>
        <mxCell id="kuDBVkSXc2tmlVB91SHo-7" value="no" style="edgeLabel;html=1;align=center;verticalAlign=middle;resizable=0;points=[];" connectable="0" vertex="1" parent="kuDBVkSXc2tmlVB91SHo-6">
          <mxGeometry x="-0.8876" relative="1" as="geometry">
            <mxPoint x="7" y="12" as="offset" />
          </mxGeometry>
        </mxCell>
        <mxCell id="kuDBVkSXc2tmlVB91SHo-10" style="edgeStyle=orthogonalEdgeStyle;rounded=0;orthogonalLoop=1;jettySize=auto;html=1;strokeColor=light-dark(#ff0000, #ededed);" edge="1" parent="SY-MzMTitLkkKKeFqSy7-1" source="kuDBVkSXc2tmlVB91SHo-8" target="SY-MzMTitLkkKKeFqSy7-32">
          <mxGeometry relative="1" as="geometry" />
        </mxCell>
        <mxCell id="cWlaVs1k42um56Pu7tMj-4" style="edgeStyle=none;curved=1;rounded=0;orthogonalLoop=1;jettySize=auto;html=1;entryX=1;entryY=0.5;entryDx=0;entryDy=0;fontSize=12;startSize=8;endSize=8;" edge="1" parent="SY-MzMTitLkkKKeFqSy7-1" source="cWlaVs1k42um56Pu7tMj-1" target="SY-MzMTitLkkKKeFqSy7-24">
          <mxGeometry relative="1" as="geometry" />
        </mxCell>
      </root>
    </mxGraphModel>
  </diagram>
</mxfile>
